<svg xmlns="http://www.w3.org/2000/svg" viewBox="0 0 1120 2086" font-family="ui-sans-serif, system-ui, sans-serif">
  <defs>
    <pattern id="grid" width="34" height="34" patternUnits="userSpaceOnUse">
      <path d="M34 0H0V34" fill="none" stroke="#7d8cae" stroke-opacity="0.05" stroke-width="1"/>
    </pattern>
    <linearGradient id="rail" x1="0" y1="0" x2="0" y2="1">
      <stop offset="0" stop-color="#f0a24c"/><stop offset="0.42" stop-color="#3fd0c5"/>
      <stop offset="0.7" stop-color="#8fce6b"/><stop offset="1" stop-color="#f0749a"/>
    </linearGradient>
    <filter id="soft" x="-20%" y="-20%" width="140%" height="140%">
      <feDropShadow dx="0" dy="8" stdDeviation="12" flood-color="#000" flood-opacity="0.38"/>
    </filter>
    <style>
      .m{font-family:ui-monospace,'SF Mono',Menlo,Consolas,monospace}
      .ink{fill:#e9edf3}.dim{fill:#93a1b2}.faint{fill:#61707f}
      .c-orch{fill:#f0a24c}.c-work{fill:#3fd0c5}.c-gate{fill:#8fce6b}.c-mem{fill:#ab8ff0}.c-herm{fill:#f0749a}.c-host{fill:#7fa8d8}
    </style>
  </defs>

  <!-- ground -->
  <rect width="1120" height="2086" fill="#0c1017"/>
  <rect width="1120" height="2086" fill="url(#grid)"/>

  <!-- ============ MASTHEAD ============ -->
  <g filter="url(#soft)">
    <rect x="40" y="40" width="1040" height="252" rx="14" fill="#111826" stroke="#25313f"/>
  </g>
  <rect x="40" y="42" width="4" height="248" rx="2" fill="url(#rail)"/>
  <circle cx="70" cy="72" r="3.5" fill="#3fd0c5"/>
  <text class="m faint" x="84" y="76" font-size="11.5" letter-spacing="3">ORCHESTRATION LAB · CLAUDE · CODEX · OPENCODE · OLLAMA CLOUD</text>
  <text class="m" x="64" y="132" font-size="38" font-weight="650" letter-spacing="-0.5"><tspan class="ink">claude</tspan><tspan class="c-orch">maxxing</tspan><tspan class="ink"> — the orchestration board</tspan></text>
  <text class="dim" x="64" y="164" font-size="13.5">A few <tspan class="ink" font-weight="600">frontier orchestrators</tspan> conduct a fabric of <tspan class="ink" font-weight="600">cheap parallel workers</tspan> —</text>
  <text class="dim" x="64" y="184" font-size="13.5">and everything they produce passes through <tspan class="ink" font-weight="600">deterministic gates</tspan> before it counts.</text>

  <!-- principle chips -->
  <g>
    <!-- p0 -->
    <rect x="64" y="200" width="237" height="74" rx="9" fill="#0f1622" stroke="#1c2531"/>
    <text class="m ink" x="76" y="220" font-size="10.5" letter-spacing="0.5">DELEGATE, DON'T RE-DERIVE</text>
    <text class="dim" x="76" y="238" font-size="11">Author the contract, read only</text>
    <text class="dim" x="76" y="253" font-size="11">pass/fail. Cost scales w/ spec.</text>
    <!-- p1 -->
    <rect x="317" y="200" width="237" height="74" rx="9" fill="#0f1622" stroke="#1c2531"/>
    <text class="m ink" x="329" y="220" font-size="10.5" letter-spacing="0.5">SINGLE-AGENT BY DEFAULT</text>
    <text class="dim" x="329" y="238" font-size="11">Fan out only on independent</text>
    <text class="dim" x="329" y="253" font-size="11">chunks. More agents often lose.</text>
    <!-- p2 -->
    <rect x="570" y="200" width="237" height="74" rx="9" fill="#0f1622" stroke="#1c2531"/>
    <text class="m ink" x="582" y="220" font-size="10.5" letter-spacing="0.5">CROSS-FAMILY CRITICS</text>
    <text class="dim" x="582" y="238" font-size="11">Same-family reviewers share</text>
    <text class="dim" x="582" y="253" font-size="11">blind spots. Diversity ≠ proof.</text>
    <!-- p3 -->
    <rect x="823" y="200" width="237" height="74" rx="9" fill="#0f1622" stroke="#1c2531"/>
    <text class="m ink" x="835" y="220" font-size="10.5" letter-spacing="0.5">WATCH, ACT ON SIGNAL</text>
    <text class="dim" x="835" y="238" font-size="11">The clock never forces a round.</text>
    <text class="dim" x="835" y="253" font-size="11">A queued flaw does.</text>
  </g>

  <!-- flow: header -> A (plain) -->
  <line x1="560" y1="292" x2="560" y2="338" stroke="#7fa8d8" stroke-opacity="0.45" stroke-width="2"/>
  <path d="M553 328 L560 336 L567 328 Z" fill="#7fa8d8"/>

  <!-- ============ BAND A · HOSTS ============ -->
  <g filter="url(#soft)"><rect x="40" y="338" width="1040" height="178" rx="14" fill="#131b28" stroke="#25313f"/></g>
  <rect x="40" y="354" width="3" height="146" rx="2" fill="#7fa8d8"/>
  <text class="m c-host" x="64" y="376" font-size="12" font-weight="600">A</text>
  <text class="m ink" x="84" y="376" font-size="16" font-weight="600">Where you sit — host surfaces</text>
  <text class="dim" x="64" y="398" font-size="12.5">Four interchangeable front-ends over one deterministic core. The launcher pair <tspan class="m c-host">c</tspan> / <tspan class="m c-host">g</tspan> spins up named tmux sessions, local or on the GPU box over Tailscale.</text>

  <!-- A cards (4) -->
  <g>
    <!-- helper geometry: cy=414 h=88 -->
    <rect x="64" y="414" width="237" height="88" rx="10" fill="#18212f" stroke="#25313f"/><line x1="74" y1="415" x2="291" y2="415" stroke="#7fa8d8" stroke-width="2"/>
    <text class="m ink" x="78" y="437" font-size="14" font-weight="600">Claude Code</text>
    <text class="m c-host" x="287" y="435" font-size="9.5" text-anchor="end" letter-spacing="1">c</text>
    <text class="dim" x="78" y="459" font-size="11.5">Opus 4.8 host.</text>
    <text class="dim" x="78" y="475" font-size="11.5">Plans w/ Fable, builds w/ Opus.</text>

    <rect x="317" y="414" width="237" height="88" rx="10" fill="#18212f" stroke="#25313f"/><line x1="327" y1="415" x2="544" y2="415" stroke="#7fa8d8" stroke-width="2"/>
    <text class="m ink" x="331" y="437" font-size="14" font-weight="600">Codex</text>
    <text class="m c-host" x="540" y="435" font-size="9.5" text-anchor="end" letter-spacing="1">g</text>
    <text class="dim" x="331" y="459" font-size="11.5">GPT-5.6 host.</text>
    <text class="dim" x="331" y="475" font-size="11.5">Same doctrine, opt-in autonomy.</text>

    <rect x="570" y="414" width="237" height="88" rx="10" fill="#18212f" stroke="#25313f"/><line x1="580" y1="415" x2="797" y2="415" stroke="#7fa8d8" stroke-width="2"/>
    <text class="m ink" x="584" y="437" font-size="14" font-weight="600">OpenCode</text>
    <text class="m c-host" x="793" y="435" font-size="9.5" text-anchor="end" letter-spacing="1">TUI</text>
    <text class="dim" x="584" y="459" font-size="11.5">kimi-coder · glm-coder.</text>
    <text class="dim" x="584" y="475" font-size="11.5">Heavy code on Ollama Cloud.</text>

    <rect x="823" y="414" width="237" height="88" rx="10" fill="#18212f" stroke="#25313f"/><line x1="833" y1="415" x2="1050" y2="415" stroke="#7fa8d8" stroke-width="2"/>
    <text class="m ink" x="837" y="437" font-size="14" font-weight="600">Warp</text>
    <text class="m c-host" x="1046" y="435" font-size="9.5" text-anchor="end" letter-spacing="1">TERM</text>
    <text class="dim" x="837" y="459" font-size="11.5">Agent pane pointed at</text>
    <text class="dim" x="837" y="475" font-size="11.5">the Ollama Cloud endpoint.</text>
  </g>

  <!-- flow A -> B -->
  <line x1="560" y1="516" x2="560" y2="562" stroke="#f0a24c" stroke-opacity="0.5" stroke-width="2"/>
  <rect x="380" y="526" width="360" height="26" rx="13" fill="#131b28" stroke="#25313f"/>
  <text class="m dim" x="560" y="543" font-size="11" text-anchor="middle"><tspan class="c-orch">▼</tspan>  intent enters the frontier thread</text>

  <!-- ============ BAND B · ORCHESTRATORS ============ -->
  <g filter="url(#soft)"><rect x="40" y="562" width="1040" height="204" rx="14" fill="#131b28" stroke="#25313f"/></g>
  <rect x="40" y="578" width="3" height="172" rx="2" fill="#f0a24c"/>
  <text class="m c-orch" x="64" y="600" font-size="12" font-weight="600">B</text>
  <text class="m ink" x="84" y="600" font-size="16" font-weight="600">Frontier orchestrators — plan · route · verify · sign off</text>
  <text class="dim" x="64" y="622" font-size="12.5">The scarce, expensive brains: they own contracts, cross-file architecture, and final merge. Planning is delegated to a <tspan class="ink" font-style="italic">different</tspan> model, then the root session builds it.</text>

  <g>
    <rect x="64" y="638" width="490" height="112" rx="10" fill="#18212f" stroke="#25313f"/><line x1="74" y1="639" x2="544" y2="639" stroke="#f0a24c" stroke-width="2"/>
    <text class="m ink" x="78" y="662" font-size="14" font-weight="600">Claude Opus 4.8</text>
    <text class="m c-orch" x="540" y="660" font-size="9.5" text-anchor="end" letter-spacing="1">CONDUCTOR</text>
    <text class="dim" x="78" y="684" font-size="11.5">Orchestrates + verifies. Design step → a read-only</text>
    <text class="dim" x="78" y="700" font-size="11.5">fable-planner; Opus reviews the plan &amp; implements it.</text>
    <text class="m c-orch" x="78" y="732" font-size="10.5">/fableplan   /fanout   /ideas   /self-improve</text>

    <rect x="570" y="638" width="490" height="112" rx="10" fill="#18212f" stroke="#25313f"/><line x1="580" y1="639" x2="1050" y2="639" stroke="#f0a24c" stroke-width="2"/>
    <text class="m ink" x="584" y="662" font-size="14" font-weight="600">Codex · GPT-5.6 Sol</text>
    <text class="m c-orch" x="1046" y="660" font-size="9.5" text-anchor="end" letter-spacing="1">CONDUCTOR</text>
    <text class="dim" x="584" y="684" font-size="11.5">Root Codex owns sign-off. Nontrivial work routes</text>
    <text class="dim" x="584" y="700" font-size="11.5">through a Sol Ultra planner, then bounded delegation.</text>
    <text class="m c-orch" x="584" y="732" font-size="10.5">solplan   fanout   ideas   memory</text>
  </g>

  <!-- flow B -> C -->
  <line x1="560" y1="766" x2="560" y2="812" stroke="#3fd0c5" stroke-opacity="0.5" stroke-width="2"/>
  <rect x="380" y="776" width="360" height="26" rx="13" fill="#131b28" stroke="#25313f"/>
  <text class="m dim" x="560" y="793" font-size="11" text-anchor="middle"><tspan class="c-work">▼</tspan>  delegate — independent chunks only</text>

  <!-- ============ BAND C · WORKER FABRIC ============ -->
  <g filter="url(#soft)"><rect x="40" y="812" width="1040" height="296" rx="14" fill="#131b28" stroke="#25313f"/></g>
  <rect x="40" y="828" width="3" height="264" rx="2" fill="#3fd0c5"/>
  <text class="m c-work" x="64" y="850" font-size="12" font-weight="600">C</text>
  <text class="m ink" x="84" y="850" font-size="16" font-weight="600">Worker fabric — bounded bulk work, cheap &amp; parallel</text>
  <text class="dim" x="64" y="872" font-size="12.5">HEAVY frontier models only — optimized for quality &amp; diversity, not cost. Summarize, classify, draft, first-pass code/tests/review — anything you'd run 5–50× at once.</text>

  <!-- primitives (3) -->
  <g>
    <rect x="64" y="888" width="321" height="82" rx="10" fill="#18212f" stroke="#25313f"/><line x1="74" y1="889" x2="375" y2="889" stroke="#3fd0c5" stroke-width="2"/>
    <text class="m ink" x="78" y="911" font-size="14" font-weight="600">oll</text>
    <text class="m c-work" x="371" y="909" font-size="9.5" text-anchor="end" letter-spacing="1">PRIMITIVE</text>
    <text class="dim" x="78" y="933" font-size="11.5">One-shot call to a single</text>
    <text class="dim" x="78" y="949" font-size="11.5">Ollama Cloud model — the worker atom.</text>

    <rect x="401" y="888" width="321" height="82" rx="10" fill="#18212f" stroke="#25313f"/><line x1="411" y1="889" x2="712" y2="889" stroke="#3fd0c5" stroke-width="2"/>
    <text class="m ink" x="415" y="911" font-size="14" font-weight="600">oll-council</text>
    <text class="m c-work" x="708" y="909" font-size="9.5" text-anchor="end" letter-spacing="1">DIVERSE</text>
    <text class="dim" x="415" y="933" font-size="11.5">Same prompt → several models</text>
    <text class="dim" x="415" y="949" font-size="11.5">in parallel, for diverse approaches.</text>

    <rect x="738" y="888" width="321" height="82" rx="10" fill="#18212f" stroke="#25313f"/><line x1="748" y1="889" x2="1049" y2="889" stroke="#3fd0c5" stroke-width="2"/>
    <text class="m ink" x="752" y="911" font-size="14" font-weight="600">provider-ask</text>
    <text class="m c-work" x="1045" y="909" font-size="9.5" text-anchor="end" letter-spacing="1">CROSS-LAB</text>
    <text class="dim" x="752" y="933" font-size="11.5">ollama · openai · xai</text>
    <text class="dim" x="752" y="949" font-size="11.5">behind one interface.</text>
  </g>

  <!-- wide (2) -->
  <g>
    <rect x="64" y="984" width="490" height="108" rx="10" fill="#18212f" stroke="#25313f"/><line x1="74" y1="985" x2="544" y2="985" stroke="#3fd0c5" stroke-width="2"/>
    <text class="m ink" x="78" y="1007" font-size="14" font-weight="600">Ollama Cloud — heavy models</text>
    <text class="m c-work" x="540" y="1005" font-size="9.5" text-anchor="end" letter-spacing="1">WORKERS</text>
    <text class="dim" x="78" y="1028" font-size="11.5">The delegate pool the orchestrator fans out across.</text>
    <text class="m c-work" x="78" y="1052" font-size="10.5">deepseek-v4-flash:0731  glm-5.3  kimi-k3</text>
    <text class="m c-work" x="78" y="1070" font-size="10.5">kimi-k2.7-code  qwen3.5:397b  minimax-m3</text>

    <rect x="570" y="984" width="490" height="108" rx="10" fill="#18212f" stroke="#25313f"/><line x1="580" y1="985" x2="1050" y2="985" stroke="#3fd0c5" stroke-width="2"/>
    <text class="m ink" x="584" y="1007" font-size="14" font-weight="600">/fanout  ·  Agent Teams</text>
    <text class="m c-work" x="1046" y="1005" font-size="9.5" text-anchor="end" letter-spacing="1">SHAPE</text>
    <text class="dim" x="584" y="1028" font-size="11.5">No shared state → /fanout (workers report to root).</text>
    <text class="dim" x="584" y="1044" font-size="11.5">Hand-offs / shared state → Agent Teams.</text>
    <text class="m c-work" x="584" y="1074" font-size="10.5">multi-council  cross-review  occ  win-log</text>
  </g>

  <!-- flow C -> D (up: results return) -->
  <line x1="560" y1="1108" x2="560" y2="1154" stroke="#8fce6b" stroke-opacity="0.5" stroke-width="2"/>
  <rect x="380" y="1118" width="360" height="26" rx="13" fill="#131b28" stroke="#25313f"/>
  <text class="m dim" x="560" y="1135" font-size="11" text-anchor="middle"><tspan class="c-gate">▲</tspan>  results return — nothing is trusted yet</text>

  <!-- ============ BAND D · GOVERNANCE ============ -->
  <g filter="url(#soft)"><rect x="40" y="1154" width="1040" height="226" rx="14" fill="#131b28" stroke="#25313f"/></g>
  <rect x="40" y="1170" width="3" height="194" rx="2" fill="#8fce6b"/>
  <text class="m c-gate" x="64" y="1192" font-size="12" font-weight="600">D</text>
  <text class="m ink" x="84" y="1192" font-size="16" font-weight="600">Governance spine — the gates that make it count</text>
  <text class="dim" x="64" y="1214" font-size="12.5">Worker output is a proposal until a <tspan class="ink" font-style="italic">deterministic</tspan> check clears it. Selection is always a verifier — never the harness grading its own rewrite.</text>

  <g>
    <rect x="64" y="1230" width="536" height="132" rx="10" fill="#18212f" stroke="#25313f"/><line x1="74" y1="1231" x2="590" y2="1231" stroke="#8fce6b" stroke-width="2"/>
    <text class="m ink" x="78" y="1253" font-size="14" font-weight="600">Two-tier verification</text>
    <text class="m c-gate" x="586" y="1251" font-size="9.5" text-anchor="end" letter-spacing="1">GATE</text>
    <text class="dim" x="78" y="1276" font-size="11.5"><tspan class="ink" font-weight="600">Tier 0</tspan>  spec-gate before you even dispatch.</text>
    <text class="dim" x="78" y="1294" font-size="11.5"><tspan class="ink" font-weight="600">Tier 1</tspan>  Opus-authored contract + mut mutation test.</text>
    <text class="dim" x="78" y="1312" font-size="11.5"><tspan class="ink" font-weight="600">Tier 2</tspan>  boolean checklist + a different-family critic.</text>
    <text class="m c-gate" x="78" y="1344" font-size="10.5">mut · harness-verify · bounded repair ×2</text>

    <rect x="616" y="1230" width="444" height="132" rx="10" fill="#18212f" stroke="#25313f"/><line x1="626" y1="1231" x2="1050" y2="1231" stroke="#ab8ff0" stroke-width="2"/>
    <text class="m ink" x="630" y="1253" font-size="14" font-weight="600">Shared memory</text>
    <text class="m c-mem" x="1046" y="1251" font-size="9.5" text-anchor="end" letter-spacing="1">GOVERNED</text>
    <text class="dim" x="630" y="1276" font-size="11.5">One governed fact per file under</text>
    <text class="dim" x="630" y="1294" font-size="11.5">.agents/memory/ — shared by Claude &amp; Codex.</text>
    <text class="dim" x="630" y="1312" font-size="11.5">Supersede, never append. Bitemporal + TTL decay.</text>
    <text class="m c-mem" x="630" y="1344" font-size="10.5">memoryctl · mem-audit</text>
  </g>

  <!-- flow D -> E -->
  <line x1="560" y1="1380" x2="560" y2="1426" stroke="#ab8ff0" stroke-opacity="0.5" stroke-width="2"/>
  <rect x="380" y="1390" width="360" height="26" rx="13" fill="#131b28" stroke="#25313f"/>
  <text class="m dim" x="560" y="1407" font-size="11" text-anchor="middle"><tspan class="c-mem">▼</tspan>  the harness improves itself</text>

  <!-- ============ BAND E · SELF-IMPROVE LOOP ============ -->
  <g filter="url(#soft)"><rect x="40" y="1426" width="1040" height="150" rx="14" fill="#131b28" stroke="#25313f"/></g>
  <rect x="40" y="1442" width="3" height="118" rx="2" fill="#ab8ff0"/>
  <text class="m c-mem" x="64" y="1464" font-size="12" font-weight="600">E</text>
  <text class="m ink" x="84" y="1464" font-size="16" font-weight="600">Self-improvement loop — continuous watch, event-driven act</text>
  <text class="m c-mem" x="1060" y="1464" font-size="11" text-anchor="end">↺ loop-until-dry, then back off</text>
  <text class="dim" x="64" y="1486" font-size="12.5">A SessionStart watcher captures flaws into a queue; a round fires only when it's actionable. An accepted round must resolve a real flaw or add an assertion — green ≠ progress.</text>

  <g>
    <!-- 5 steps -->
    <rect x="64" y="1500" width="180" height="60" rx="8" fill="#18212f" stroke="#25313f"/><line x1="64" y1="1508" x2="64" y2="1552" stroke="#ab8ff0" stroke-width="2"/>
    <text class="m ink" x="78" y="1526" font-size="12.5" font-weight="600">loop-tick</text>
    <text class="dim" x="78" y="1544" font-size="11">watch → intake → gate</text>
    <text class="m c-mem" x="256" y="1535" font-size="13">→</text>

    <rect x="270" y="1500" width="180" height="60" rx="8" fill="#18212f" stroke="#25313f"/><line x1="270" y1="1508" x2="270" y2="1552" stroke="#ab8ff0" stroke-width="2"/>
    <text class="m ink" x="284" y="1526" font-size="12.5" font-weight="600">loop-queue</text>
    <text class="dim" x="284" y="1544" font-size="11">the forward flaw state</text>
    <text class="m c-mem" x="462" y="1535" font-size="13">→</text>

    <rect x="476" y="1500" width="180" height="60" rx="8" fill="#18212f" stroke="#25313f"/><line x1="476" y1="1508" x2="476" y2="1552" stroke="#ab8ff0" stroke-width="2"/>
    <text class="m ink" x="490" y="1526" font-size="12.5" font-weight="600">/self-improve</text>
    <text class="dim" x="490" y="1544" font-size="11">mine → propose → critic</text>
    <text class="m c-mem" x="668" y="1535" font-size="13">→</text>

    <rect x="682" y="1500" width="180" height="60" rx="8" fill="#18212f" stroke="#25313f"/><line x1="682" y1="1508" x2="682" y2="1552" stroke="#ab8ff0" stroke-width="2"/>
    <text class="m ink" x="696" y="1526" font-size="12.5" font-weight="600">harness-verify</text>
    <text class="dim" x="696" y="1544" font-size="11">deterministic winner</text>
    <text class="m c-mem" x="874" y="1535" font-size="13">→</text>

    <rect x="888" y="1500" width="172" height="60" rx="8" fill="#18212f" stroke="#25313f"/><line x1="888" y1="1508" x2="888" y2="1552" stroke="#ab8ff0" stroke-width="2"/>
    <text class="m ink" x="902" y="1526" font-size="12.5" font-weight="600">commit + push</text>
    <text class="dim" x="902" y="1544" font-size="11">archived to the log</text>
  </g>

  <!-- flow E -> F -->
  <line x1="560" y1="1576" x2="560" y2="1622" stroke="#f0749a" stroke-opacity="0.5" stroke-width="2"/>
  <rect x="360" y="1586" width="400" height="26" rx="13" fill="#131b28" stroke="#25313f"/>
  <text class="m dim" x="560" y="1603" font-size="11" text-anchor="middle"><tspan class="c-herm">▼</tspan>  the same doctrine, pointed at the business</text>

  <!-- ============ BAND F · HERMES ============ -->
  <g filter="url(#soft)"><rect x="40" y="1622" width="1040" height="216" rx="14" fill="#131b28" stroke="#25313f"/></g>
  <rect x="40" y="1638" width="3" height="184" rx="2" fill="#f0749a"/>
  <text class="m c-herm" x="64" y="1660" font-size="12" font-weight="600">F</text>
  <text class="m ink" x="84" y="1660" font-size="16" font-weight="600">Hermes — the business orchestration plane</text>
  <text class="dim" x="64" y="1682" font-size="12.5">The dashboard the whole harness serves — one platform, exposed to the agents over MCP. A proactive layer perceives &amp; queues; every round must move a real KPI.</text>

  <!-- 5 stages -->
  <g>
    <rect x="64" y="1698" width="192" height="88" rx="9" fill="#18212f" stroke="#25313f"/>
    <text class="m c-herm" x="78" y="1718" font-size="10" letter-spacing="1">01</text>
    <text class="m ink" x="78" y="1738" font-size="13" font-weight="600">CRM</text>
    <text class="dim" x="78" y="1758" font-size="11">Leads, deals, accounts,</text>
    <text class="dim" x="78" y="1772" font-size="11">scoring.</text>

    <rect x="264" y="1698" width="192" height="88" rx="9" fill="#18212f" stroke="#25313f"/>
    <text class="m c-herm" x="278" y="1718" font-size="10" letter-spacing="1">02</text>
    <text class="m ink" x="278" y="1738" font-size="13" font-weight="600">Product</text>
    <text class="dim" x="278" y="1758" font-size="11">Initiatives → epics →</text>
    <text class="dim" x="278" y="1772" font-size="11">tasks.</text>

    <rect x="464" y="1698" width="192" height="88" rx="9" fill="#18212f" stroke="#25313f"/>
    <text class="m c-herm" x="478" y="1718" font-size="10" letter-spacing="1">03</text>
    <text class="m ink" x="478" y="1738" font-size="13" font-weight="600">Tasks</text>
    <text class="dim" x="478" y="1758" font-size="11">Cycles, sprints,</text>
    <text class="dim" x="478" y="1772" font-size="11">kanban.</text>

    <rect x="664" y="1698" width="192" height="88" rx="9" fill="#18212f" stroke="#25313f"/>
    <text class="m c-herm" x="678" y="1718" font-size="10" letter-spacing="1">04</text>
    <text class="m ink" x="678" y="1738" font-size="13" font-weight="600">Agent execution</text>
    <text class="dim" x="678" y="1758" font-size="11">Sessions claim &amp;</text>
    <text class="dim" x="678" y="1772" font-size="11">run the work.</text>

    <rect x="864" y="1698" width="196" height="88" rx="9" fill="#18212f" stroke="#25313f"/>
    <text class="m c-herm" x="878" y="1718" font-size="10" letter-spacing="1">05</text>
    <text class="m ink" x="878" y="1738" font-size="13" font-weight="600">Agent-work view</text>
    <text class="dim" x="878" y="1758" font-size="11">What the agents</text>
    <text class="dim" x="878" y="1772" font-size="11">actually did.</text>
  </g>
  <text class="m" x="64" y="1812" font-size="11"><tspan class="dim">Proactive layer:  </tspan><tspan class="c-herm">hermes-watch</tspan><tspan class="dim"> → </tspan><tspan class="c-herm">intent-queue</tspan><tspan class="dim"> · </tspan><tspan class="c-herm">kpi-brief</tspan><tspan class="faint">    — AUTO runs unattended · SELECT waits for human sign-off</tspan></text>

  <!-- ============ FOOTER ============ -->
  <g filter="url(#soft)"><rect x="40" y="1878" width="1040" height="168" rx="14" fill="#111826" stroke="#25313f"/></g>
  <rect x="40" y="1880" width="4" height="164" rx="2" fill="url(#rail)"/>
  <text class="m" x="64" y="1918" font-size="18"><tspan class="ink">The iron rule — </tspan><tspan class="c-gate">verification ceiling = spec ceiling.</tspan></text>
  <text class="dim" x="64" y="1946" font-size="12.5">If you can't cheaply say what "correct" means, you don't delegate it — you do it in the frontier thread. Orchestrators are scarce</text>
  <text class="dim" x="64" y="1964" font-size="12.5">because judgment is scarce; workers are cheap and many because bounded work is cheap; the gates exist because an agent's</text>
  <text class="dim" x="64" y="1982" font-size="12.5">confidence is not evidence. The repo is the source of truth — the conversation is not — so state lives in queues and files.</text>

  <!-- legend -->
  <g font-size="11" class="m">
    <rect x="64" y="2006" width="11" height="11" rx="3" fill="#7fa8d8"/><text class="dim" x="81" y="2015">host surface</text>
    <rect x="200" y="2006" width="11" height="11" rx="3" fill="#f0a24c"/><text class="dim" x="217" y="2015">frontier orchestrator</text>
    <rect x="392" y="2006" width="11" height="11" rx="3" fill="#3fd0c5"/><text class="dim" x="409" y="2015">worker fabric</text>
    <rect x="540" y="2006" width="11" height="11" rx="3" fill="#8fce6b"/><text class="dim" x="557" y="2015">verification gate</text>
    <rect x="704" y="2006" width="11" height="11" rx="3" fill="#ab8ff0"/><text class="dim" x="721" y="2015">memory + self-improve</text>
    <rect x="912" y="2006" width="11" height="11" rx="3" fill="#f0749a"/><text class="dim" x="929" y="2015">hermes / business</text>
  </g>
  <text class="m faint" x="1060" y="2036" font-size="11" text-anchor="end">orchestratormaxxing · a lab for frontier coding-agent orchestration</text>
</svg>
